<svg width="39" height="39" viewBox="0 0 39 39" fill="none" xmlns="http://www.w3.org/2000/svg">
<path d="M0.299688 29.3271C0.344311 28.4438 0.702309 27.8789 1.41526 27.5452C1.78949 27.3693 2.16016 27.1847 2.54149 27.025C2.72556 26.9474 2.78032 26.8373 2.74939 26.6528C2.58821 25.7282 2.55562 24.7857 2.65254 23.8522C2.66978 23.6899 2.58814 23.625 2.4563 23.5773C2.04404 23.4277 1.63381 23.2731 1.22156 23.121C0.992034 23.0397 0.780997 22.9135 0.60076 22.7498C0.420524 22.5861 0.274701 22.3881 0.171798 22.1674C0.0688942 21.9468 0.0109715 21.7078 0.00141337 21.4645C-0.0081448 21.2212 0.030851 20.9784 0.116125 20.7504C0.355467 20.0922 0.598022 19.4353 0.843786 18.7799C1.16578 17.9178 2.24282 17.4579 3.16976 17.7905C3.57542 17.9356 3.98109 18.0786 4.37762 18.2429C4.5622 18.3189 4.66209 18.2778 4.77466 18.1222C5.31477 17.3669 5.94881 16.6834 6.66151 16.0883C6.81617 15.9605 6.79588 15.8474 6.72692 15.6943C6.51141 15.2181 6.26801 14.7506 6.10271 14.2567C5.82584 13.4327 6.21629 12.5265 6.99821 12.1371C7.65505 11.8095 8.32203 11.5028 8.99915 11.2168C9.93521 10.8228 10.9585 11.2827 11.4027 12.2669C11.5655 12.6285 11.7379 12.986 11.8925 13.3511C11.9615 13.5138 12.0497 13.5503 12.2237 13.5219C13.145 13.3698 14.0735 13.3607 15.0025 13.4205C15.1744 13.4317 15.2692 13.384 15.328 13.2207C15.4943 12.7608 15.651 12.2953 15.8483 11.8486C16.2362 10.9724 17.1763 10.5809 18.1164 10.8851C18.7412 11.088 19.3537 11.3319 19.9663 11.5717C21.0438 11.9941 21.4753 12.9753 21.0712 14.0564C20.9353 14.4195 20.8029 14.7841 20.6605 15.1446C20.5905 15.3206 20.5986 15.4291 20.7801 15.5579C21.5277 16.0838 22.2024 16.7063 22.7866 17.4092C22.9236 17.575 23.0371 17.5994 23.2344 17.502C23.6872 17.2779 24.1431 17.0456 24.6207 16.8874C25.4752 16.6035 26.3788 16.997 26.7794 17.8042C27.0901 18.4317 27.3833 19.0677 27.6592 19.7124C28.075 20.6829 27.6658 21.7037 26.7064 22.1464C26.3149 22.3264 25.9204 22.5013 25.5401 22.6955C25.461 22.7361 25.3677 22.876 25.3814 22.9521C25.5497 23.8826 25.5264 24.8202 25.496 25.7568C25.4889 25.9778 25.5599 26.0732 25.7581 26.1381C26.1187 26.2567 26.468 26.4043 26.8296 26.527C27.9452 26.9068 28.3741 28.0711 28.002 28.9691C27.7484 29.5837 27.5456 30.2206 27.3093 30.8428C26.9721 31.7261 25.9361 32.2088 25.0132 31.9076C24.5731 31.7646 24.1395 31.5983 23.708 31.4295C23.5559 31.3696 23.4666 31.397 23.3713 31.5309C22.8319 32.3015 22.1918 32.9966 21.4682 33.5977C21.3105 33.7286 21.3095 33.832 21.3942 34.0034C21.6006 34.4187 21.7999 34.8396 21.9753 35.2681C22.3389 36.1433 21.9347 37.1752 21.0763 37.5808C20.451 37.876 19.8233 38.1675 19.1914 38.45C18.7627 38.6434 18.2756 38.6623 17.8332 38.5027C17.3908 38.3431 17.0279 38.0176 16.8214 37.595C16.6185 37.1894 16.4243 36.7751 16.2468 36.3557C16.1708 36.1772 16.0643 36.1372 15.8919 36.1656C14.9576 36.3189 14.0077 36.353 13.0649 36.267C12.8986 36.2523 12.8367 36.3415 12.7906 36.4698C12.6537 36.842 12.4985 37.2086 12.3849 37.5879C12.0888 38.5854 10.9448 39.1812 9.87386 38.7679C9.28412 38.5402 8.68679 38.3323 8.09503 38.1087C7.6501 37.9437 7.2866 37.6124 7.08115 37.1847C6.87569 36.7569 6.84432 36.2661 6.99365 35.8157C7.13208 35.3908 7.28065 34.9679 7.45813 34.5581C7.55042 34.3447 7.49109 34.229 7.32578 34.1134C6.62182 33.6158 5.98136 33.0339 5.41866 32.3807C5.36795 32.3239 5.33347 32.2413 5.27161 32.2099C5.18946 32.1683 5.06877 32.1231 4.99626 32.1536C4.5764 32.3295 4.16718 32.5319 3.75138 32.7174C2.81328 33.1368 1.78087 32.7727 1.32602 31.8483C1.02177 31.2273 0.732904 30.5987 0.459419 29.9625C0.36206 29.7343 0.33569 29.4767 0.299688 29.3271ZM21.1189 24.8425C21.1848 21.084 18.0343 17.7606 14.0284 17.7738C10.1847 17.787 7.01241 20.9461 6.99111 24.7827C6.9688 28.785 10.2268 31.8945 14.0319 31.9137C17.9501 31.934 21.1554 28.7206 21.1189 24.8425Z" fill="white"/>
<path d="M23.7837 4.06656C24.0687 4.16341 24.3542 4.25671 24.6372 4.35864C25.0053 4.49099 24.9921 4.48186 25.237 4.19384C25.522 3.8617 25.8268 3.54528 26.1396 3.239C26.2537 3.12745 26.2963 3.03871 26.2258 2.89267C26.1194 2.6726 26.0179 2.44948 25.9241 2.22383C25.8081 1.95743 25.8015 1.65605 25.9059 1.38485C26.0103 1.11366 26.2172 0.894442 26.4819 0.774599C26.8252 0.61132 27.169 0.449561 27.5159 0.295408C28.1477 0.0149934 28.7638 0.258391 29.0508 0.887677C29.1623 1.1326 29.2333 1.46981 29.4286 1.58238C29.6238 1.69495 29.9478 1.56767 30.2161 1.56209C30.5112 1.55601 30.8073 1.55651 31.1009 1.5773C31.2657 1.58897 31.3499 1.54029 31.4006 1.38512C31.4711 1.16911 31.5593 0.958667 31.6409 0.746707C31.8732 0.144804 32.4127 -0.132567 33.0232 0.0611379C33.433 0.19095 33.8381 0.341553 34.2341 0.507875C34.799 0.745188 35.0343 1.34253 34.8198 1.94595C34.7468 2.15233 34.6783 2.36226 34.5861 2.56053C34.5181 2.70759 34.5653 2.77908 34.6773 2.87746C35.0516 3.20503 35.417 3.54308 35.7736 3.89162C35.8953 4.01078 35.9978 4.04374 36.1514 3.96869C36.37 3.85866 36.5926 3.75572 36.8192 3.66445C37.0715 3.55948 37.3543 3.55495 37.6098 3.65177C37.8653 3.74859 38.0741 3.93943 38.1934 4.18521C38.3861 4.57921 38.5829 4.97322 38.7441 5.3804C38.9576 5.91943 38.7507 6.45845 38.2411 6.74039C38.0181 6.86099 37.7888 6.96933 37.554 7.06492C37.3927 7.13236 37.3674 7.2282 37.3801 7.39908C37.4176 7.89399 37.4171 8.39144 37.4485 8.88686C37.454 8.93478 37.4698 8.98092 37.495 9.02209C37.5201 9.06325 37.5539 9.09843 37.5941 9.12519C37.7893 9.22254 38.0028 9.28289 38.2076 9.36199C38.8896 9.62415 39.1564 10.2048 38.9089 10.8903C38.7857 11.2316 38.663 11.5729 38.5291 11.9101C38.2837 12.5292 37.6975 12.7934 37.0652 12.5748C36.8578 12.5033 36.6514 12.4278 36.4486 12.3451C36.3117 12.2899 36.2285 12.3183 36.1266 12.4359C35.8071 12.8061 35.4806 13.1717 35.1291 13.5109C34.977 13.6575 34.9532 13.7619 35.0536 13.9374C35.154 14.1128 35.2366 14.3167 35.3228 14.5094C35.3851 14.6415 35.4204 14.7847 35.4267 14.9306C35.4329 15.0765 35.41 15.2222 35.3593 15.3591C35.3085 15.4961 35.2309 15.6215 35.1311 15.7281C35.0312 15.8347 34.9111 15.9203 34.7777 15.9799C34.4497 16.132 34.1185 16.2887 33.7899 16.4363C33.0922 16.7501 32.504 16.5285 32.182 15.8344C32.1359 15.7329 32.0933 15.6315 32.0466 15.5347C31.8529 15.1219 31.8529 15.129 31.4031 15.1599C30.9975 15.1863 30.5918 15.2106 30.1902 15.199C29.9803 15.1939 29.8829 15.2654 29.8266 15.4525C29.7703 15.6396 29.6958 15.8171 29.6238 15.9981C29.388 16.6066 28.8099 16.8876 28.1872 16.6822C27.7947 16.5524 27.4058 16.4089 27.025 16.2491C26.4738 16.0179 26.2263 15.4378 26.4206 14.8643C26.4966 14.6405 26.5786 14.4191 26.6665 14.2C26.7172 14.0753 26.7071 13.9921 26.596 13.8958C26.1969 13.5454 25.8151 13.1757 25.416 12.8253C25.3789 12.7992 25.3364 12.7818 25.2917 12.7742C25.2469 12.7667 25.2011 12.7693 25.1574 12.7817C24.9363 12.8629 24.7279 12.9775 24.5119 13.0733C23.9237 13.3339 23.2949 13.0987 23.0216 12.5155C22.8634 12.1793 22.7047 11.8436 22.551 11.5059C22.2579 10.8604 22.4953 10.2423 23.1428 9.95426C23.3458 9.87268 23.5443 9.78043 23.7376 9.6779C23.774 9.65092 23.8039 9.61616 23.8251 9.57616C23.8463 9.53616 23.8584 9.49192 23.8603 9.44667C23.8507 8.92387 23.8167 8.40158 23.8096 7.87929C23.8066 7.72717 23.7548 7.65009 23.6149 7.60242C23.3837 7.52383 23.1555 7.43458 22.9283 7.3428C22.6741 7.24236 22.4677 7.04891 22.351 6.80177C22.2343 6.55462 22.2161 6.27232 22.3 6.01222C22.4359 5.5954 22.5901 5.18365 22.7513 4.77596C22.9177 4.35762 23.3081 4.1127 23.7837 4.06656ZM30.6329 12.5566C32.8478 12.5936 34.7402 10.7519 34.8153 8.5532C34.8979 6.14153 32.9801 4.25316 30.7515 4.19231C28.458 4.12994 26.4921 5.89103 26.4383 8.30473C26.4251 8.86187 26.5241 9.41598 26.7295 9.93405C26.9349 10.4521 27.2424 10.9236 27.6338 11.3203C28.0252 11.717 28.4924 12.0309 29.0077 12.2433C29.5229 12.4557 30.0756 12.5623 30.6329 12.5566Z" fill="white"/>
<path d="M14.3814 8.06293C14.1912 7.83626 14.0081 7.603 13.8053 7.3875C13.7723 7.36236 13.7337 7.3457 13.6927 7.33898C13.6518 7.33226 13.6098 7.33569 13.5705 7.34896C12.8941 7.74549 12.5102 7.52441 12.2613 6.81399C12.2471 6.77444 12.2237 6.73843 12.2065 6.6999C11.9798 6.18977 12.1005 5.85967 12.6294 5.65886C12.8606 5.57114 12.921 5.45603 12.8758 5.2248C12.8408 5.04479 12.8758 4.85159 12.8429 4.67056C12.8146 4.56774 12.7535 4.47695 12.6689 4.41195C12.5944 4.35161 12.4808 4.34147 12.3895 4.29837C12.0579 4.14168 11.922 3.82476 12.0376 3.47842C12.0934 3.31058 12.1563 3.14476 12.2166 2.97844C12.3824 2.51852 12.6963 2.3451 13.1451 2.53779C13.4448 2.66658 13.5847 2.5748 13.7962 2.36487C14.1131 2.04998 14.2718 1.78275 14.0218 1.33905C13.8758 1.07993 14.0558 0.767064 14.3352 0.624068C14.5304 0.522652 14.7312 0.435942 14.9315 0.346189C15.2865 0.186459 15.6278 0.281789 15.7763 0.643337C15.9168 0.984602 16.1004 1.15042 16.4731 1.03582C16.4814 1.03379 16.4901 1.03379 16.4984 1.03582C16.8919 1.10224 17.1333 0.980038 17.2464 0.558148C17.3346 0.230067 17.6794 0.105326 18.01 0.209785C18.2128 0.27317 18.4076 0.350245 18.6053 0.424278C18.9907 0.568796 19.1728 0.898905 19.0069 1.2711C18.8604 1.59817 18.937 1.77818 19.1961 2.0089C19.4912 2.2736 19.7082 2.47998 20.1316 2.21985C20.407 2.05048 20.7173 2.20413 20.8821 2.49316C20.9826 2.67843 21.0737 2.86866 21.1549 3.06312C21.3481 3.50023 21.2437 3.83033 20.7964 4.00832C20.5109 4.12241 20.372 4.25324 20.4795 4.56154C20.4853 4.58639 20.4853 4.61225 20.4795 4.6371C20.4232 5.03566 20.5003 5.31608 20.9663 5.43068C21.2863 5.50978 21.4115 5.87488 21.3111 6.20093C21.2492 6.40376 21.1717 6.59848 21.0956 6.79523C20.9516 7.16793 20.6392 7.35301 20.2696 7.19126C19.8999 7.0295 19.727 7.16539 19.4729 7.42147C19.1809 7.71507 19.0855 7.93869 19.3046 8.31393C19.4567 8.57406 19.3213 8.90671 19.0561 9.05579C18.8209 9.1881 18.5768 9.30383 18.3254 9.40212C18.2522 9.43132 18.1739 9.44547 18.0951 9.44372C18.0163 9.44197 17.9386 9.42436 17.8668 9.39194C17.7949 9.35952 17.7304 9.31295 17.6769 9.25502C17.6235 9.1971 17.5822 9.12899 17.5557 9.05477C17.4274 8.70641 17.2251 8.64505 16.8762 8.64911C16.4741 8.6552 16.2038 8.7054 16.0872 9.15619C16.0055 9.46906 15.6572 9.6009 15.3407 9.50455C15.0989 9.43049 14.8619 9.34175 14.6308 9.23884C14.5017 9.18274 14.3971 9.08202 14.3361 8.95511C14.2751 8.8282 14.2618 8.68358 14.2987 8.54769C14.3423 8.3687 14.4042 8.19274 14.4579 8.01678L14.3814 8.06293ZM16.6678 7.16692C17.972 7.16337 18.9851 6.1416 18.9831 4.83131C18.9831 3.57477 17.9309 2.52967 16.6713 2.53119C15.4036 2.53119 14.3489 3.58643 14.3504 4.85159C14.3502 5.15587 14.41 5.4572 14.5265 5.73833C14.6429 6.01946 14.8136 6.27487 15.0288 6.48994C15.2441 6.705 15.4996 6.8755 15.7809 6.99166C16.0621 7.10783 16.3635 7.16738 16.6678 7.16692Z" fill="white"/>
</svg>
