<svg width="38" height="37" viewBox="0 0 38 37" fill="none" xmlns="http://www.w3.org/2000/svg">
<path d="M15.1067 3.44789C11.5229 4.20929 1.29546 7.34173 0.103106 18.387C-0.363762 22.695 0.754704 27.053 3.46186 30.4559C6.06658 33.7436 10.6362 36.9078 18.4957 36.4185C20.9526 36.2649 23.4011 35.8942 25.5826 34.7621C26.5193 34.2904 27.382 33.6857 28.1437 32.9672C28.2662 32.8469 28.3633 32.7035 28.4292 32.5453C28.4951 32.3872 28.5285 32.2175 28.5274 32.0464C28.5263 31.8752 28.4907 31.7059 28.4228 31.5486C28.3549 31.3913 28.256 31.2492 28.1319 31.1305L16.734 20.0467C16.6583 19.9731 16.598 19.8854 16.5565 19.7885C16.515 19.6917 16.4931 19.5876 16.4922 19.4824L16.3511 4.42803C16.3483 4.27714 16.3119 4.12875 16.2446 3.99349C16.1773 3.85824 16.0807 3.7395 15.9617 3.64579C15.8427 3.55208 15.7043 3.48573 15.5565 3.45152C15.4087 3.41731 15.255 3.41606 15.1067 3.44789Z" fill="white"/>
<path d="M19 1.06292V15.8034C19.0004 16.0152 19.0854 16.2182 19.2362 16.3678C19.387 16.5174 19.5914 16.6015 19.8044 16.6015H35.4747C35.584 16.6016 35.6921 16.5789 35.792 16.5347C35.8918 16.4906 35.9812 16.4259 36.0542 16.3451C36.1273 16.2643 36.1824 16.1691 36.2159 16.0657C36.2495 15.9622 36.2607 15.8529 36.2489 15.7449C35.8694 12.4054 33.5535 0.428413 19.791 0.288156C19.6876 0.286379 19.5849 0.30513 19.4889 0.34329C19.3929 0.38145 19.3055 0.438264 19.2319 0.510407C19.1582 0.582549 19.0998 0.668564 19.06 0.763435C19.0202 0.858306 18.9998 0.960118 19 1.06292Z" fill="white"/>
<path d="M22.804 19.1789H36.7781C36.8855 19.1788 36.9917 19.2008 37.09 19.2436C37.1884 19.2864 37.2767 19.349 37.3495 19.4274C37.4223 19.5059 37.4779 19.5985 37.5128 19.6995C37.5477 19.8004 37.5612 19.9074 37.5523 20.0138C37.376 22.1995 36.5665 28.1104 32.9525 30.7235C32.7999 30.8336 32.6124 30.8849 32.4246 30.8681C32.2369 30.8512 32.0617 30.7672 31.9314 30.6317L22.223 20.5314C22.1141 20.4182 22.0411 20.2757 22.0129 20.1216C21.9848 19.9675 22.0028 19.8086 22.0647 19.6646C22.1265 19.5205 22.2296 19.3977 22.361 19.3114C22.4925 19.2251 22.6465 19.179 22.804 19.1789Z" fill="white"/>
</svg>
