<svg width="48" height="28" viewBox="0 0 48 28" fill="none" xmlns="http://www.w3.org/2000/svg">
<path d="M38.1853 27.3533H3.31752C3.24508 27.3282 3.17399 27.2971 3.10019 27.2795C1.47844 26.9012 0.47146 25.9031 0.0792255 24.2849C0.0589141 24.2003 0.0264047 24.119 0 24.0358V4.9431C0.0242259 4.89266 0.0443852 4.84037 0.0602662 4.78671C0.502377 2.76438 1.93906 1.6046 4.01081 1.6046H10.3073C19.3797 1.6046 28.4521 1.60324 37.5245 1.60053C38.8292 1.60053 39.8942 2.05686 40.7222 3.07175C40.7718 3.12332 40.8249 3.17129 40.8813 3.21529C41.5868 2.50643 42.2876 1.8199 42.9666 1.11239C43.4406 0.618145 43.9321 0.164522 44.6206 0H45.2977C45.316 0.0128639 45.3329 0.0331785 45.3532 0.0372408C45.673 0.0983673 45.9747 0.231466 46.2354 0.426451C46.4961 0.621435 46.709 0.873191 46.858 1.16265C47.007 1.45212 47.0882 1.77169 47.0954 2.09718C47.1026 2.42266 47.0356 2.74552 46.8996 3.04129C46.8852 3.08011 46.8786 3.12138 46.8803 3.16275C46.8819 3.20411 46.8917 3.24475 46.9091 3.28232C47.0627 3.59173 47.2327 3.89165 47.3965 4.19768V4.80702C47.1616 5.18345 46.9849 5.61948 46.6822 5.92821C45.0573 7.59035 43.4101 9.22609 41.7588 10.8598C41.6775 10.9337 41.6135 11.0246 41.5715 11.1261C41.5295 11.2276 41.5104 11.3371 41.5157 11.4468C41.5218 15.3608 41.5083 19.2741 41.5279 23.1874C41.5333 24.1353 41.3492 25.0155 40.7832 25.7541C40.4517 26.1732 40.0471 26.5287 39.5888 26.8035C39.1637 27.0628 38.6545 27.1786 38.1853 27.3533ZM38.4853 5.48474L38.5882 5.53417C38.922 5.18617 39.2456 4.82598 39.5956 4.4949C39.7811 4.31887 39.7581 4.19091 39.6166 4.01082C39.0899 3.34258 38.4061 3.04197 37.557 3.04264C26.3632 3.04716 15.1694 3.04716 3.97562 3.04264C2.45498 3.04264 1.44956 4.03858 1.44821 5.56396C1.4455 11.4768 1.4455 17.3897 1.44821 23.3025C1.4424 23.5729 1.46922 23.8429 1.52809 24.1069C1.8111 25.2348 2.74678 25.8983 4.03655 25.899H29.1874C31.9859 25.899 34.7843 25.899 37.5828 25.899C38.2084 25.9125 38.8177 25.6987 39.2977 25.2971C39.884 24.8056 40.075 24.1306 40.075 23.3892C40.075 19.0448 40.075 14.7007 40.075 10.3568C40.075 10.2836 40.0648 10.2112 40.0513 10.0358C39.5726 10.5226 39.1657 10.9546 38.7365 11.3642C38.6498 11.4418 38.5817 11.5379 38.5372 11.6454C38.4926 11.7528 38.4728 11.8689 38.4792 11.985C38.4864 15.5729 38.488 19.1613 38.4839 22.7501C38.4839 23.224 38.4927 23.6979 38.4799 24.1719C38.4683 24.595 38.2449 24.8083 37.8231 24.8279C37.7331 24.832 37.643 24.8279 37.5523 24.8279H4.10629C4.00473 24.8279 3.90317 24.8279 3.80162 24.8279C3.24238 24.8191 3.04401 24.6248 3.04265 24.073C3.04265 23.136 3.04265 22.1994 3.04265 21.2633C3.04265 21.1665 3.05821 21.0696 3.06566 20.9728H4.25998V23.5957H37.2537V12.8848C37.1346 12.9898 37.0567 13.0514 36.987 13.1211C36.0696 14.0385 35.1095 14.918 34.2456 15.8835C32.773 17.5307 31.0635 18.8246 29.0452 19.7271C28.244 20.0912 27.4869 20.5455 26.7886 21.0811C25.6336 21.9525 24.3073 22.2199 22.878 21.9484C21.8029 21.7453 20.8564 21.2606 19.9742 20.6323C19.878 20.5646 19.7805 20.4969 19.7541 20.4786C19.3892 20.855 19.0967 21.2335 18.7305 21.5158C18.1888 21.9356 17.7575 21.8442 17.3432 21.287C17.2173 21.1177 17.1401 20.9146 17.0378 20.7257C16.9986 20.6505 16.9634 20.5734 16.9539 20.5537C16.4366 20.7839 15.9552 21.0277 15.4542 21.2125C15.0521 21.3635 14.6749 21.291 14.3202 20.9992C13.6634 20.4576 13.1225 19.8401 12.7833 19.0548C12.7513 18.989 12.7148 18.9254 12.6743 18.8645C11.9654 19.203 11.2911 19.5415 10.6012 19.8455C10.2071 20.0195 9.82732 19.8266 9.74472 19.4589C9.67363 19.1401 9.82122 18.9004 10.1509 18.7345C10.828 18.396 11.4976 18.0527 12.1604 17.6919C12.2633 17.6357 12.3784 17.4745 12.3743 17.3662C12.3066 15.4475 12.9742 13.7576 13.983 12.1807C14.6756 11.0974 15.4901 10.1184 16.614 9.45155C17.1861 9.11303 17.8015 8.89637 18.4325 9.29312C19.0988 9.71221 19.2315 10.3723 19.1543 11.1022C19.1517 11.2038 19.1339 11.3044 19.1015 11.4008C18.8015 12.09 18.5639 12.8192 18.1746 13.4549C17.0913 15.2281 15.6269 16.6648 13.9722 17.9085C13.7582 18.0696 13.7271 18.2078 13.8246 18.442C14.057 18.9834 14.4034 19.4684 14.8402 19.8638C15.0365 20.048 15.2152 20.0717 15.4495 19.9681C16.046 19.7034 16.4949 19.2707 16.8713 18.7494C17.1313 18.3912 17.3655 18.2883 17.6607 18.3967C17.9559 18.505 18.0541 18.7298 18.0561 19.1705C18.0561 19.5666 18.1042 19.9627 18.1313 20.3587C18.5416 20.113 18.6519 19.7636 18.7108 19.3967C18.7582 19.1035 18.8307 18.8428 19.1475 18.7345C19.486 18.6194 19.6952 18.8158 19.9173 19.0243C20.5715 19.6498 21.3371 20.1472 22.1746 20.4908C23.6275 21.0751 25.0006 20.9579 26.2605 19.987C26.4029 19.8772 26.5207 19.7388 26.6065 19.5808C27.312 18.2443 27.9999 16.8984 28.7053 15.5639C28.8416 15.3062 29.015 15.0699 29.2199 14.8625C31.8378 12.2315 34.4611 9.60501 37.0899 6.98304C37.1664 6.90653 37.2632 6.8043 37.2666 6.71222C37.2855 6.2647 37.2754 5.81649 37.2754 5.35204H4.24102V15.1726H3.07447C3.06133 15.1452 3.05155 15.1163 3.04535 15.0866C3.04535 11.6337 3.04535 8.18074 3.04535 4.72781C3.04535 4.35882 3.27013 4.15164 3.64047 4.12795C3.73052 4.12185 3.82124 4.12795 3.91129 4.12795H37.5922C37.6599 4.12795 37.7276 4.12795 37.7953 4.12795C38.2584 4.14013 38.4677 4.3507 38.4778 4.82124C38.4893 5.03925 38.4853 5.26335 38.4853 5.4861V5.48474ZM38.0025 7.86862C35.4528 10.4204 32.8848 12.9918 30.3695 15.5097L31.5767 16.7338C34.117 14.1963 36.6803 11.6343 39.2361 9.08323L38.0025 7.86862ZM40.1962 8.22542C40.5178 7.89841 40.8238 7.58426 41.1345 7.2735C42.5929 5.81469 44.0524 4.35656 45.513 2.89911C45.7655 2.64725 45.9402 2.36898 45.8766 1.99999C45.8547 1.8307 45.7844 1.67131 45.6742 1.541C45.5639 1.41068 45.4184 1.31499 45.255 1.2654C44.8576 1.12999 44.5286 1.25728 44.2395 1.54434C42.7346 3.0519 41.2278 4.55832 39.7188 6.06362C39.4331 6.34865 39.1285 6.61406 38.8529 6.86998L40.1962 8.22542ZM13.5768 16.5795L13.656 16.6154C13.7397 16.5655 13.8189 16.5087 13.893 16.4454C14.6973 15.6424 15.5307 14.8652 16.2911 14.0223C16.964 13.2775 17.5158 12.4292 17.8354 11.4624C17.9214 11.1733 17.9592 10.872 17.9471 10.5707C17.9437 10.3412 17.7677 10.2166 17.5409 10.3439C17.2098 10.5314 16.8638 10.7109 16.5822 10.9627C15.2525 12.1597 14.3479 13.6337 13.8341 15.3445C13.7156 15.7474 13.6614 16.1685 13.5768 16.5808V16.5795ZM46.0018 4.12795C45.9118 4.21326 45.8217 4.29382 45.7364 4.37913C44.4148 5.70004 43.1027 7.03043 41.7655 8.33577C41.4514 8.6418 41.515 8.95325 41.5469 9.39062C42.0756 8.85575 42.5387 8.38249 43.0066 7.91398C43.9766 6.94174 44.947 5.97131 45.9179 5.00268C46.2388 4.68109 46.2577 4.4773 46.0018 4.1293V4.12795ZM28.5104 18.549L28.5781 18.6032L30.4914 17.5795L29.53 16.5937C29.191 17.241 28.8511 17.8927 28.5104 18.549Z" fill="white"/>
<path d="M4.22324 19.1464H3.07227V17.1707H4.22324V19.1464Z" fill="white"/>
</svg>
