<svg width="20" height="22" viewBox="0 0 20 22" fill="none" xmlns="http://www.w3.org/2000/svg">
<path d="M0.00200977 20.5786V20.4261C0.00200977 15.3174 0.00144993 10.2088 0.00033059 5.10035C-0.00166075 5.05938 0.00536251 5.01847 0.0209039 4.9805C0.0364452 4.94254 0.0601261 4.90845 0.0902774 4.88064C1.69525 3.28063 3.29958 1.67989 4.90327 0.0784407C4.95019 0.0337741 5.01152 0.00732198 5.07621 0.0038448C8.55399 0.00016698 12.0319 -0.000872156 15.51 0.000726897H15.636V0.168628C15.636 4.15027 15.6351 8.13192 15.6333 12.1136C15.6333 12.2313 15.6631 12.2791 15.7789 12.321C17.6148 12.9854 18.7558 14.2735 19.1072 16.1933C19.5967 18.8689 17.7932 21.4354 15.1054 21.9134C13.4854 22.2013 12.0522 21.7678 10.8275 20.6645C10.7982 20.6359 10.7634 20.6136 10.7253 20.5988C10.6871 20.584 10.6463 20.5771 10.6054 20.5784C7.13979 20.58 3.67408 20.58 0.208288 20.5784L0.00200977 20.5786ZM1.43468 19.1508H9.70283C9.00532 17.5003 9.05521 15.8942 10.0173 14.3776C10.9794 12.861 12.413 12.1205 14.2054 12.051V1.42524H6.39663V6.39175H1.43468V19.1508ZM14.2081 21.2855C16.5508 21.2932 18.4591 19.3976 18.4711 17.0506C18.4828 14.6913 16.5791 12.7763 14.2158 12.7708C11.8745 12.7653 9.96332 14.6644 9.95276 17.0069C9.94938 17.5678 10.057 18.1238 10.2693 18.6429C10.4817 19.162 10.7946 19.634 11.1901 20.0316C11.5857 20.4293 12.0559 20.7448 12.5739 20.96C13.0918 21.1752 13.6472 21.2858 14.2081 21.2855Z" fill="white"/>
<path d="M12.0773 7.81738V8.5059H3.56445V7.81738H12.0773Z" fill="white"/>
<path d="M12.0774 9.23535V9.93442H11.9419C9.19312 9.93442 6.44427 9.9353 3.69533 9.93706C3.5778 9.93706 3.54566 9.90254 3.55142 9.78914C3.56053 9.60718 3.55382 9.42426 3.55382 9.23535H12.0774Z" fill="white"/>
<path d="M12.0775 10.6533V11.3442H3.5625V10.6533H12.0775Z" fill="white"/>
<path d="M3.5625 12.772V12.0703H8.53092C8.53092 12.2897 8.53212 12.504 8.52852 12.7176C8.52852 12.7349 8.49758 12.7612 8.47671 12.7655C8.44125 12.7711 8.40525 12.7723 8.36949 12.7691H3.5625V12.772Z" fill="white"/>
<path d="M14.9253 19.8599H13.5042V17.0319H11.4277L14.2206 14.2256L17.0169 17.0219H14.9253V19.8599Z" fill="white"/>
</svg>
