<svg width="40" height="22" viewBox="0 0 40 22" fill="none" xmlns="http://www.w3.org/2000/svg">
<path d="M13.3333 8.28549H8.33333V3.31419H5V8.28549H0V11.5997H5V16.571H8.33333V11.5997H13.3333V8.28549ZM30 9.94258C32.7667 9.94258 34.9833 7.72207 34.9833 4.97129C34.9833 2.22051 32.7667 0 30 0C29.4667 0 28.95 0.0828546 28.4833 0.231993C29.4333 1.57424 29.9833 3.1982 29.9833 4.97129C29.9833 6.74439 29.4167 8.35177 28.4833 9.71059C28.95 9.85973 29.4667 9.94258 30 9.94258ZM21.6667 9.94258C24.4333 9.94258 26.65 7.72207 26.65 4.97129C26.65 2.22051 24.4333 0 21.6667 0C18.9 0 16.6667 2.22051 16.6667 4.97129C16.6667 7.72207 18.9 9.94258 21.6667 9.94258ZM32.7 13.5219C34.0833 14.7316 35 16.2727 35 18.2281V21.5423H40V18.2281C40 15.6761 36.05 14.1019 32.7 13.5219ZM21.6667 13.2568C18.3333 13.2568 11.6667 14.9139 11.6667 18.2281V21.5423H31.6667V18.2281C31.6667 14.9139 25 13.2568 21.6667 13.2568Z" fill="white"/>
</svg>
