<svg width="16" height="17" viewBox="0 0 16 17" fill="none" xmlns="http://www.w3.org/2000/svg">
<path d="M13.4671 4.61844H2.38379C1.06962 4.61844 0.00878906 5.85618 0.00878906 7.3895V12.9316H3.17546V16.6264H12.6755V12.9316H15.8421V7.3895C15.8421 5.85618 14.7813 4.61844 13.4671 4.61844ZM11.0921 14.779H4.75879V10.1606H11.0921V14.779ZM13.4671 8.31319C13.0317 8.31319 12.6755 7.89753 12.6755 7.3895C12.6755 6.88147 13.0317 6.46581 13.4671 6.46581C13.9025 6.46581 14.2588 6.88147 14.2588 7.3895C14.2588 7.89753 13.9025 8.31319 13.4671 8.31319ZM12.6755 0H3.17546V3.69475H12.6755V0Z" fill="white"/>
</svg>
