<svg width="58" height="64" viewBox="0 0 58 64" fill="none" xmlns="http://www.w3.org/2000/svg">
<path d="M12.9516 63.9302C12.2384 63.8654 11.5252 63.8455 10.8121 63.8006C9.17469 63.7222 7.55085 63.4646 5.96958 63.0325C2.90748 62.1348 0.927645 60.2048 0.289293 57.048C0.159627 56.4146 0.0947555 55.7663 0 55.1279V52.8887C0.0797941 52.2703 0.144627 51.6469 0.249357 51.0285C0.979288 46.3666 3.4427 42.1524 7.1466 39.229C8.33316 38.2722 9.63486 37.468 11.0215 36.8351L11.3357 36.7005C11.2609 36.8551 11.216 36.9598 11.1661 37.0546C10.4531 38.448 10.0499 39.9791 9.98424 41.543C9.98574 41.6251 9.96698 41.7063 9.92958 41.7793C9.89217 41.8524 9.8373 41.9151 9.76983 41.9619C9.55492 42.1026 9.37287 42.288 9.23617 42.5055C9.03585 42.8277 8.75355 43.091 8.41822 43.2685C7.13044 44.186 6.10005 45.419 5.42594 46.8493C5.10022 47.3178 4.95343 47.8876 5.01209 48.4552C5.01335 48.5404 4.99269 48.6245 4.95219 48.6995C4.2071 50.6702 3.9421 52.7901 4.17916 54.8836C4.24756 55.4013 4.3939 55.9057 4.6131 56.3797C4.7661 56.7097 5.01676 56.9848 5.33121 57.1677C6.0271 57.6218 6.83459 57.8754 7.66516 57.9008C8.0342 57.9008 8.40823 57.9008 8.78227 57.9008C9.1333 57.8995 9.46979 57.7601 9.71894 57.5128C9.96809 57.2656 10.11 56.9302 10.1139 56.5792C10.1207 56.2284 9.98977 55.8889 9.74926 55.6335C9.50874 55.378 9.17776 55.227 8.8272 55.2127C8.17818 55.1994 7.52896 55.2211 6.88226 55.2775C6.61296 55.2775 6.55802 55.1479 6.54804 54.9633C6.50815 54.2751 6.45831 53.5819 6.4633 52.8937C6.49683 51.7849 6.71425 50.6895 7.10666 49.652C7.15944 49.5514 7.2266 49.459 7.3061 49.3778C7.51556 49.1184 7.75495 48.879 7.93947 48.5997C8.34343 47.9863 8.68759 47.338 9.1115 46.7396C9.35563 46.4173 9.6464 46.1333 9.97426 45.8968C10.2748 45.6145 10.6715 45.4573 11.0838 45.4573C11.4961 45.4573 11.893 45.6145 12.1935 45.8968C12.9684 46.5339 13.5976 47.3298 14.0387 48.2307C14.2575 48.5648 14.4975 48.8847 14.757 49.1883C14.813 49.2639 14.8598 49.3459 14.8965 49.4326C15.5433 51.1548 15.7707 53.0062 15.5598 54.8337C15.51 55.2975 15.505 55.2626 15.0611 55.2376C14.4651 55.1952 13.8667 55.1952 13.2707 55.2376C12.9269 55.2706 12.61 55.4378 12.3887 55.7029C12.1674 55.9681 12.0596 56.3098 12.0888 56.654C12.1042 56.9935 12.2505 57.314 12.4968 57.5483C12.7431 57.7825 13.0704 57.9124 13.4103 57.9107C13.9195 57.9607 14.4323 57.9607 14.9414 57.9107C15.7324 57.7957 16.4763 57.4643 17.0909 56.9532C17.6092 56.4173 17.9035 55.7038 17.9137 54.9583C18.1384 52.82 17.8636 50.6587 17.1109 48.6447C17.0796 48.4938 17.0662 48.3398 17.0709 48.1858C17.0777 47.9013 17.0424 47.6173 16.9662 47.343C16.389 45.8649 15.42 44.5718 14.1634 43.6027C13.4741 43.0716 12.8211 42.4951 12.2085 41.8771C12.1803 41.8482 12.1582 41.8138 12.1436 41.7761C12.129 41.7384 12.1223 41.6981 12.1237 41.6577C12.2783 39.2988 13.1211 37.249 14.9564 35.698C15.1135 35.5742 15.2984 35.4904 15.495 35.4537C16.0486 35.3489 16.6071 35.2791 17.1657 35.1943C17.4449 36.7154 18.3975 37.8076 19.3451 38.8798C21.3864 41.101 23.6064 43.1509 25.9829 45.009C26.8656 45.7272 27.7684 46.4204 28.686 47.1385C29.3443 46.6398 29.9826 46.1411 30.6159 45.6424C33.0706 43.7485 35.3826 41.6765 37.5331 39.4434C38.1017 38.835 38.6253 38.1916 39.129 37.5333C39.6855 36.8772 40.0542 36.0828 40.1962 35.2343C41.0989 35.2841 41.9268 35.3839 42.62 36.0871C43.8982 37.4127 44.7764 39.0722 45.1535 40.8747C45.2632 41.3734 45.3131 41.8721 45.4029 42.3708C45.4477 42.6202 45.3779 42.7349 45.1186 42.8197C44.1724 43.1221 43.3495 43.7229 42.7733 44.532C42.197 45.3411 41.8984 46.315 41.9218 47.3081C41.9489 48.3284 42.3121 49.3113 42.9551 50.104C43.5981 50.8967 44.4848 51.4548 45.4776 51.6918C46.6306 51.9591 47.8422 51.774 48.8628 51.1746C49.8834 50.5753 50.6353 49.6072 50.9635 48.4701C51.2909 47.3313 51.1662 46.1102 50.6152 45.0611C50.0642 44.0121 49.1296 43.2163 48.0061 42.8396C47.8583 42.8108 47.7261 42.7291 47.6343 42.6097C47.5425 42.4903 47.4973 42.3416 47.5074 42.1913C47.3628 40.3707 46.8342 38.6013 45.9564 36.9997C45.9015 36.8999 45.8517 36.8002 45.8018 36.7005L45.8516 36.6306C46.5648 36.9997 47.2979 37.3289 47.9812 37.7428C50.2678 39.0635 52.2496 40.8524 53.7966 42.9924C55.3436 45.1325 56.421 47.5753 56.958 50.1607C57.1425 50.9686 57.1974 51.8015 57.3171 52.6244C57.3171 52.7291 57.357 52.8338 57.377 52.9336V55.1728C57.2922 55.7613 57.2273 56.3498 57.1176 56.9333C56.9231 58.2647 56.3661 59.5171 55.5076 60.5532C54.6492 61.5894 53.5223 62.3695 52.2502 62.8081C50.6628 63.3706 49.004 63.7063 47.3228 63.8056C46.3603 63.8854 44.4353 63.995 44.4353 64L12.9516 63.9302Z" fill="white"/>
<path d="M29.6041 0C30.2125 0.0847812 30.826 0.154606 31.4345 0.254349C34.5253 0.80687 37.3818 2.26666 39.6402 4.44787C41.8987 6.62908 43.457 9.433 44.1167 12.5027C44.6491 15.2753 44.5383 18.1331 43.7926 20.8562C42.7454 25.2566 40.6648 29.3442 37.7232 32.7804C36.3546 34.4177 34.655 35.7469 32.736 36.6804C29.4944 38.2064 26.3675 37.8772 23.3652 36.022C21.1377 34.5842 19.2435 32.6865 17.8096 30.4564C15.4187 26.942 13.8145 22.9529 13.1068 18.7616C12.5293 15.5933 12.926 12.3243 14.2446 9.38612C15.5632 6.44793 17.7418 3.9786 20.4927 2.30405C22.6011 1.01745 24.9863 0.253172 27.4498 0.0748191C27.5425 0.0637549 27.6342 0.0454194 27.7241 0.019968L29.6041 0ZM19.236 8.69259C18.9517 8.99681 18.7023 9.24113 18.4729 9.51043C16.7959 11.5387 15.6768 13.9693 15.2263 16.5622C15.0776 17.15 15.0237 17.7578 15.0667 18.3626C15.6486 22.1865 17.1006 25.8259 19.3107 29.0002C20.4977 30.8168 22.0335 32.3798 23.8291 33.5983C26.971 35.643 30.1477 35.7029 33.3445 33.718C34.4961 32.9852 35.5359 32.0899 36.4316 31.0599C38.8997 28.2185 40.6948 24.8568 41.6831 21.2252C42.1004 20.0608 42.2801 18.8246 42.2116 17.5896C42.1405 16.3836 41.7814 15.2121 41.1644 14.1734C40.8238 13.6108 40.3192 13.1658 39.7183 12.8984C39.1174 12.6309 38.4491 12.5538 37.8031 12.6773C35.8904 12.9912 33.9628 13.2059 32.0279 13.3206C29.7206 13.4826 27.402 13.3434 25.1307 12.9067C24.5679 12.7912 24.0133 12.6396 23.47 12.4528C21.5699 11.7995 19.989 10.7573 19.236 8.69259Z" fill="white"/>
<path d="M48.6498 47.128C48.6498 47.6941 48.4248 48.237 48.0245 48.6373C47.6243 49.0376 47.0814 49.2625 46.5153 49.2625C45.9495 49.2573 45.4086 49.0291 45.01 48.6277C44.6113 48.2262 44.387 47.6838 44.3857 47.118C44.3935 46.5588 44.6195 46.0247 45.0155 45.6297C45.4114 45.2346 45.946 45.0099 46.5053 45.0035C46.7858 45.0015 47.0638 45.055 47.3236 45.1608C47.5834 45.2666 47.8197 45.4227 48.0189 45.6201C48.2182 45.8175 48.3765 46.0524 48.4848 46.3111C48.593 46.5699 48.6491 46.8475 48.6498 47.128Z" fill="white"/>
</svg>
