<svg width="13" height="13" viewBox="0 0 13 13" fill="none" xmlns="http://www.w3.org/2000/svg">
<path d="M3.344 12.704L3.488 12.544L3.616 12.464L3.76 12.544C3.968 12.384 4.144 12.208 4.288 12.032C4.432 11.856 4.704 11.392 5.136 10.672L6.128 8.992C6.656 8.096 9.424 4.336 10.048 3.632C11.488 1.984 11.968 1.488 12.16 1.232C12.336 1.008 12.448 0.832 12.448 0.704C12.448 0.624 12.4 0.495999 12.32 0.495999C12.24 0.495999 12.112 0.559999 11.952 0.672L12.08 0.384L11.536 0.704L11.568 0.48C11.536 0.575999 11.28 0.832 11.216 0.832C11.168 0.832 11.152 0.783999 11.152 0.704V0.639999L10.704 0.863999C10.672 0.863999 10.64 0.848 10.64 0.799999C10.64 0.752 10.672 0.639999 10.704 0.48C10.48 0.719999 10.16 0.992 9.744 1.28C9.184 1.664 7.008 4.4 6.128 5.824C5.536 6.768 5.296 7.328 5.2 7.328C5.168 7.328 5.152 7.264 5.136 7.136C4.848 7.792 4.592 8.336 4.336 8.736C4.08 9.136 3.84 9.344 3.664 9.344C3.456 9.344 3.28 8.944 3.088 8.128C3.008 7.776 2.832 7.552 2.576 7.424L2.528 7.408C2.48 7.408 2.416 7.44 2.336 7.488C2.256 7.536 2.208 7.584 2.176 7.584H2.16L1.872 7.488L1.616 7.872C1.584 7.92 1.52 7.936 1.472 7.936C1.392 7.936 1.328 7.92 1.296 7.872C1.232 8.096 1.152 8.208 1.088 8.208C1.04 8.208 0.944 8.176 0.816 8.096C0.928 8.944 1.024 9.504 1.12 9.776C1.312 10.304 1.744 11.504 2.16 12.304C2.208 12.4 2.272 12.512 2.32 12.608C2.48 12.512 2.528 12.496 2.64 12.496L2.768 12.512C2.848 12.544 2.896 12.592 2.896 12.672L3.264 12.496C3.328 12.496 3.344 12.56 3.344 12.704Z" fill="white"/>
</svg>
