<svg width="27" height="28" viewBox="0 0 27 28" fill="none" xmlns="http://www.w3.org/2000/svg">
<g clip-path="url(#clip0_50_556)">
<rect width="27" height="27" transform="translate(0 0.5)" fill="#595959"/>
<path d="M21.375 3.875H16.6725C16.2 2.57 14.9625 1.625 13.5 1.625C12.0375 1.625 10.8 2.57 10.3275 3.875H5.625C4.3875 3.875 3.375 4.8875 3.375 6.125V21.875C3.375 23.1125 4.3875 24.125 5.625 24.125H21.375C22.6125 24.125 23.625 23.1125 23.625 21.875V6.125C23.625 4.8875 22.6125 3.875 21.375 3.875ZM13.5 3.875C14.1187 3.875 14.625 4.38125 14.625 5C14.625 5.61875 14.1187 6.125 13.5 6.125C12.8813 6.125 12.375 5.61875 12.375 5C12.375 4.38125 12.8813 3.875 13.5 3.875ZM13.5 8.375C15.3675 8.375 16.875 9.8825 16.875 11.75C16.875 13.6175 15.3675 15.125 13.5 15.125C11.6325 15.125 10.125 13.6175 10.125 11.75C10.125 9.8825 11.6325 8.375 13.5 8.375ZM20.25 21.875H6.75V20.3C6.75 18.05 11.25 16.8125 13.5 16.8125C15.75 16.8125 20.25 18.05 20.25 20.3V21.875Z" fill="white"/>
</g>
<defs>
<clipPath id="clip0_50_556">
<rect width="27" height="27" fill="white" transform="translate(0 0.5)"/>
</clipPath>
</defs>
</svg>
