<svg width="28" height="31" viewBox="0 0 28 31" fill="none" xmlns="http://www.w3.org/2000/svg">
<path d="M24.6667 3.07326H18.2225C17.575 1.29519 15.8792 0.00762939 13.875 0.00762939C11.8708 0.00762939 10.175 1.29519 9.5275 3.07326H3.08333C1.3875 3.07326 0 4.45279 0 6.13889V27.5983C0 29.2844 1.3875 30.6639 3.08333 30.6639H24.6667C26.3625 30.6639 27.75 29.2844 27.75 27.5983V6.13889C27.75 4.45279 26.3625 3.07326 24.6667 3.07326ZM13.875 3.07326C14.7229 3.07326 15.4167 3.76303 15.4167 4.60608C15.4167 5.44912 14.7229 6.13889 13.875 6.13889C13.0271 6.13889 12.3333 5.44912 12.3333 4.60608C12.3333 3.76303 13.0271 3.07326 13.875 3.07326ZM13.875 9.20452C16.4342 9.20452 18.5 11.2585 18.5 13.803C18.5 16.3474 16.4342 18.4014 13.875 18.4014C11.3158 18.4014 9.25 16.3474 9.25 13.803C9.25 11.2585 11.3158 9.20452 13.875 9.20452ZM23.125 27.5983H4.625V25.4524C4.625 22.3867 10.7917 20.7006 13.875 20.7006C16.9583 20.7006 23.125 22.3867 23.125 25.4524V27.5983Z" fill="white"/>
</svg>
