<svg width="67" height="59" viewBox="0 0 67 59" fill="none" xmlns="http://www.w3.org/2000/svg">
<path d="M32.7824 58.9136C24.0975 58.9136 15.4127 58.6975 6.72393 58.9947C1.15018 59.1877 -1.73707 54.0694 1.11543 49.2445C10.0242 34.1907 18.6589 18.9633 27.4209 3.81688C30.4008 -1.33228 35.5577 -1.25122 38.5452 3.93654C46.9599 18.5425 55.3797 33.1434 63.8047 47.7391C64.2563 48.5111 64.7311 49.2831 65.1518 50.0821C67.4485 54.4014 64.9048 58.8519 60.0065 58.8905C50.9318 58.9638 41.8571 58.9136 32.7824 58.9136ZM32.8982 56.2734C41.6448 56.2734 50.3953 56.2966 59.1457 56.2734C63.1022 56.2734 64.3683 54.0424 62.4151 50.6534C57.2428 41.688 52.0666 32.7214 46.8866 23.7535C43.2544 17.4618 39.6376 11.1585 35.963 4.88994C34.2183 1.91393 31.6591 1.97183 29.8681 4.94398C29.6018 5.38401 29.3509 5.83563 29.0961 6.27952C20.6043 20.9859 12.1124 35.6922 3.62052 50.3986C1.45124 54.1621 2.65554 56.285 7.02113 56.2927C15.6494 56.2902 24.2751 56.2837 32.8982 56.2734Z" fill="#E49B13"/>
<path d="M33.057 14.7207C33.5704 14.7207 34.0837 14.7207 34.601 14.7207C36.5811 14.7593 37.1871 15.3036 37.052 17.2683C36.8127 20.665 36.4692 24.054 36.1411 27.4431C35.6856 32.1715 35.207 36.9038 34.736 41.6322C34.7052 41.9526 34.8017 42.3617 34.6395 42.5779C34.1107 43.2688 33.4816 43.8903 32.9103 44.5349C32.3468 43.8748 31.3972 43.2688 31.293 42.5431C30.8144 39.1773 30.5635 35.7767 30.2392 32.3876C29.7915 27.721 29.3051 23.0543 28.9114 18.3838C28.6258 14.9832 28.9114 14.7284 32.2889 14.7207H33.057Z" fill="#E49B13"/>
<path d="M33.084 46.0603C35.1877 45.4813 35.207 46.8053 35.3228 48.4187C35.4772 50.5185 34.3848 50.5764 32.7752 50.7038C30.5828 50.8737 30.6214 49.6076 30.521 48.0906C30.3936 46.1298 31.4204 45.7824 33.084 46.0603Z" fill="#E49B13"/>
</svg>
