<svg width="54" height="63" viewBox="0 0 54 63" fill="none" xmlns="http://www.w3.org/2000/svg">
<path d="M35.4491 57.546L34.0278 57.7782C34.5016 52.8367 36.1977 50.5815 39.0309 50.9226C42.0062 51.278 43.0817 53.988 42.1389 58.8916L40.7413 58.3751L40.2675 58.9673C40.7413 59.3795 41.2388 60.1234 41.7126 60.1139C42.2574 60.1139 43.1955 59.4743 43.2523 59.0242C43.6835 55.7077 44.2946 52.3582 40.6039 50.1883C40.1017 49.8898 40.1537 48.5254 40.0779 47.6441C39.9974 46.6492 40.0779 45.6353 40.0779 44.0766C43.456 45.6969 46.4644 47.0188 49.3308 48.5964C50.1078 49.0276 50.7142 50.1646 50.9605 51.0884C51.7375 54.0353 52.3109 57.0391 53.031 60.3176C35.5331 63.6097 17.5778 63.6434 0.0676507 60.4171C-0.505617 51.7849 2.50756 47.5826 11.2866 44.9863C10.7039 47.4404 12.4474 49.9419 9.69479 52.0597C8.27347 53.1352 8.79462 55.0445 10.1686 56.2005C11.5425 57.3565 13.1865 57.2096 14.3899 55.8357C15.5933 54.4617 15.7307 52.614 14.1767 51.6665C11.2345 49.8756 12.4853 47.2556 12.4237 44.9104C12.4237 44.4793 13.305 43.9392 13.8451 43.5839C17.0525 41.5514 20.0514 40.9355 22.7662 44.5314C23.6853 45.7443 25.1351 46.5355 26.4522 47.5873C28.4468 45.8154 30.3798 44.195 32.1944 42.4515C33.1419 41.5419 33.9473 41.4234 35.1223 41.9777C39.5852 44.105 39.0167 42.8163 39.0451 47.6631C39.0451 49.0086 38.6851 49.7145 37.2022 50.1315C34.5538 50.88 32.2038 55.343 32.8813 58.0482C33.0055 58.3017 33.1902 58.5208 33.4191 58.6861C33.6479 58.8513 33.914 58.9577 34.1937 58.9958C34.7291 58.9958 35.2786 58.522 35.8234 58.2377L35.4491 57.546Z" fill="#544F40"/>
<path d="M47.554 37.7526C43.3706 38.7375 39.0324 38.8744 34.7952 38.1553C33.5975 37.968 32.3718 38.087 31.2324 38.5011C27.9667 39.7959 24.3239 39.7602 21.0842 38.4016C20.0915 38.0213 19.0147 37.9149 17.9667 38.0937C13.727 38.8593 9.37638 38.7626 5.1748 37.8094C5.70543 36.5823 6.12235 35.5163 6.59613 34.493C9.1782 28.8693 10.211 23.004 10.1542 16.7975C10.0784 7.82894 16.6165 0.689095 24.9549 0.0447604C33.445 -0.590098 41.5939 5.59742 42.1103 14.2154C42.622 22.3359 43.2379 30.2148 47.554 37.7526ZM29.8916 13.031C27.1532 14.5044 24.3248 16.1484 21.3637 17.565C19.3501 18.5126 16.2801 18.6073 15.323 20.1234C14.2476 21.8242 14.963 24.6905 15.0009 27.0499C15.1004 33.4696 19.9898 38.4205 26.1726 38.4205C32.4406 38.4205 37.311 33.6449 37.5194 27.2063C37.6324 24.9236 37.615 22.6362 37.4673 20.3555C37.2956 19.4279 36.8045 18.5898 36.0791 17.9866C34.0467 16.2242 31.8578 14.5944 29.8916 13.031Z" fill="#544F40"/>
<path d="M9.14941 53.9422C10.5234 52.9141 11.2815 51.9097 12.0632 51.8955C12.7312 51.8955 14.0294 53.061 13.9583 53.5916C13.8683 54.416 12.9492 55.6052 12.2054 55.7568C11.4615 55.9084 10.6134 54.8613 9.14941 53.9422Z" fill="#544F40"/>
</svg>
