<svg width="58" height="64" viewBox="0 0 58 64" fill="none" xmlns="http://www.w3.org/2000/svg">
<path d="M12.9516 63.9307C12.2384 63.8659 11.5252 63.8459 10.8121 63.8011C9.17469 63.7227 7.55085 63.4651 5.96958 63.033C2.90748 62.1353 0.927645 60.2053 0.289293 57.0485C0.159627 56.4151 0.0947555 55.7668 0 55.1284V52.8892C0.0797941 52.2708 0.144627 51.6474 0.249357 51.029C0.979288 46.3671 3.4427 42.1529 7.1466 39.2295C8.33316 38.2727 9.63486 37.4685 11.0215 36.8356L11.3357 36.7009C11.2609 36.8555 11.216 36.9603 11.1661 37.0551C10.4531 38.4485 10.0499 39.9796 9.98424 41.5435C9.98574 41.6256 9.96698 41.7067 9.92958 41.7798C9.89217 41.8529 9.8373 41.9156 9.76983 41.9624C9.55492 42.1031 9.37287 42.2885 9.23617 42.506C9.03585 42.8282 8.75355 43.0915 8.41822 43.269C7.13044 44.1865 6.10005 45.4195 5.42594 46.8497C5.10022 47.3182 4.95343 47.8881 5.01209 48.4556C5.01335 48.5409 4.99269 48.625 4.95219 48.7C4.2071 50.6707 3.9421 52.7906 4.17916 54.8841C4.24756 55.4018 4.3939 55.9062 4.6131 56.3802C4.7661 56.7102 5.01676 56.9853 5.33121 57.1681C6.0271 57.6223 6.83459 57.8759 7.66516 57.9012C8.0342 57.9012 8.40823 57.9012 8.78227 57.9012C9.1333 57.9 9.46979 57.7606 9.71894 57.5133C9.96809 57.266 10.11 56.9307 10.1139 56.5796C10.1207 56.2289 9.98977 55.8894 9.74926 55.634C9.50874 55.3785 9.17776 55.2275 8.8272 55.2132C8.17818 55.1999 7.52896 55.2215 6.88226 55.278C6.61296 55.278 6.55802 55.1483 6.54804 54.9638C6.50815 54.2756 6.45831 53.5824 6.4633 52.8941C6.49683 51.7854 6.71425 50.69 7.10666 49.6525C7.15944 49.5519 7.2266 49.4595 7.3061 49.3783C7.51556 49.1189 7.75495 48.8795 7.93947 48.6002C8.34343 47.9868 8.68759 47.3385 9.1115 46.74C9.35563 46.4178 9.6464 46.1338 9.97426 45.8972C10.2748 45.615 10.6715 45.4578 11.0838 45.4578C11.4961 45.4578 11.893 45.615 12.1935 45.8972C12.9684 46.5344 13.5976 47.3302 14.0387 48.2312C14.2575 48.5653 14.4975 48.8852 14.757 49.1887C14.813 49.2644 14.8598 49.3464 14.8965 49.4331C15.5433 51.1553 15.7707 53.0067 15.5598 54.8341C15.51 55.2979 15.505 55.2631 15.0611 55.2381C14.4651 55.1957 13.8667 55.1957 13.2707 55.2381C12.9269 55.271 12.61 55.4382 12.3887 55.7034C12.1674 55.9686 12.0596 56.3103 12.0888 56.6545C12.1042 56.994 12.2505 57.3145 12.4968 57.5488C12.7431 57.783 13.0704 57.9129 13.4103 57.9112C13.9195 57.9611 14.4323 57.9611 14.9414 57.9112C15.7324 57.7961 16.4763 57.4648 17.0909 56.9537C17.6092 56.4178 17.9035 55.7043 17.9137 54.9588C18.1384 52.8205 17.8636 50.6592 17.1109 48.6452C17.0796 48.4943 17.0662 48.3403 17.0709 48.1863C17.0777 47.9018 17.0424 47.6178 16.9662 47.3435C16.389 45.8654 15.42 44.5723 14.1634 43.6032C13.4741 43.0721 12.8211 42.4956 12.2085 41.8776C12.1803 41.8486 12.1582 41.8143 12.1436 41.7766C12.129 41.7389 12.1223 41.6986 12.1237 41.6582C12.2783 39.2993 13.1211 37.2495 14.9564 35.6985C15.1135 35.5747 15.2984 35.4909 15.495 35.4542C16.0486 35.3494 16.6071 35.2796 17.1657 35.1948C17.4449 36.7159 18.3975 37.8081 19.3451 38.8803C21.3864 41.1015 23.6064 43.1514 25.9829 45.0095C26.8656 45.7277 27.7684 46.4209 28.686 47.139C29.3443 46.6403 29.9826 46.1416 30.6159 45.6429C33.0706 43.749 35.3826 41.677 37.5331 39.4439C38.1017 38.8354 38.6253 38.1921 39.129 37.5338C39.6855 36.8777 40.0542 36.0833 40.1962 35.2348C41.0989 35.2846 41.9268 35.3844 42.62 36.0875C43.8982 37.4132 44.7764 39.0727 45.1535 40.8752C45.2632 41.3739 45.3131 41.8726 45.4029 42.3713C45.4477 42.6207 45.3779 42.7354 45.1186 42.8202C44.1724 43.1226 43.3495 43.7234 42.7733 44.5325C42.197 45.3416 41.8984 46.3155 41.9218 47.3086C41.9489 48.3289 42.3121 49.3118 42.9551 50.1045C43.5981 50.8972 44.4848 51.4553 45.4776 51.6923C46.6306 51.9596 47.8422 51.7745 48.8628 51.1751C49.8834 50.5758 50.6353 49.6077 50.9635 48.4706C51.2909 47.3318 51.1662 46.1106 50.6152 45.0616C50.0642 44.0126 49.1296 43.2168 48.0061 42.8401C47.8583 42.8113 47.7261 42.7296 47.6343 42.6102C47.5425 42.4908 47.4973 42.342 47.5074 42.1918C47.3628 40.3711 46.8342 38.6018 45.9564 37.0002C45.9015 36.9004 45.8517 36.8007 45.8018 36.7009L45.8516 36.6311C46.5648 37.0002 47.2979 37.3294 47.9812 37.7433C50.2678 39.064 52.2496 40.8529 53.7966 42.9929C55.3436 45.133 56.421 47.5757 56.958 50.1612C57.1425 50.9691 57.1974 51.802 57.3171 52.6249C57.3171 52.7296 57.357 52.8343 57.377 52.9341V55.1733C57.2922 55.7618 57.2273 56.3503 57.1176 56.9338C56.9231 58.2652 56.3661 59.5175 55.5076 60.5537C54.6492 61.5899 53.5223 62.37 52.2502 62.8086C50.6628 63.3711 49.004 63.7068 47.3228 63.806C46.3603 63.8858 44.4353 63.9955 44.4353 64.0005L12.9516 63.9307Z" fill="#544F40"/>
<path d="M29.6041 0C30.2125 0.0847812 30.826 0.154606 31.4345 0.254349C34.5253 0.80687 37.3818 2.26666 39.6402 4.44787C41.8987 6.62908 43.457 9.433 44.1167 12.5027C44.6491 15.2753 44.5383 18.1331 43.7926 20.8562C42.7454 25.2566 40.6648 29.3442 37.7232 32.7804C36.3546 34.4177 34.655 35.7469 32.736 36.6804C29.4944 38.2064 26.3675 37.8772 23.3652 36.022C21.1377 34.5842 19.2435 32.6865 17.8096 30.4564C15.4187 26.942 13.8145 22.9529 13.1068 18.7616C12.5293 15.5933 12.926 12.3243 14.2446 9.38612C15.5632 6.44793 17.7418 3.9786 20.4927 2.30405C22.6011 1.01745 24.9863 0.253172 27.4498 0.0748191C27.5425 0.0637549 27.6342 0.0454194 27.7241 0.019968L29.6041 0ZM19.236 8.69259C18.9517 8.99681 18.7023 9.24113 18.4729 9.51043C16.7959 11.5387 15.6768 13.9693 15.2263 16.5622C15.0776 17.15 15.0237 17.7578 15.0667 18.3626C15.6486 22.1865 17.1006 25.8259 19.3107 29.0002C20.4977 30.8168 22.0335 32.3798 23.8291 33.5983C26.971 35.643 30.1477 35.7029 33.3445 33.718C34.4961 32.9852 35.5359 32.0899 36.4316 31.0599C38.8997 28.2185 40.6948 24.8568 41.6831 21.2252C42.1004 20.0608 42.2801 18.8246 42.2116 17.5896C42.1405 16.3836 41.7814 15.2121 41.1644 14.1734C40.8238 13.6108 40.3192 13.1658 39.7183 12.8984C39.1174 12.6309 38.4491 12.5538 37.8031 12.6773C35.8904 12.9912 33.9628 13.2059 32.0279 13.3206C29.7206 13.4826 27.402 13.3434 25.1307 12.9067C24.5679 12.7912 24.0133 12.6396 23.47 12.4528C21.5699 11.7995 19.989 10.7573 19.236 8.69259Z" fill="#544F40"/>
<path d="M48.6498 47.128C48.6498 47.6941 48.4248 48.237 48.0245 48.6373C47.6243 49.0376 47.0814 49.2625 46.5153 49.2625C45.9495 49.2573 45.4086 49.0291 45.01 48.6277C44.6113 48.2262 44.387 47.6838 44.3857 47.118C44.3935 46.5588 44.6195 46.0247 45.0155 45.6297C45.4114 45.2346 45.946 45.0099 46.5053 45.0035C46.7858 45.0015 47.0638 45.055 47.3236 45.1608C47.5834 45.2666 47.8197 45.4227 48.0189 45.6201C48.2182 45.8175 48.3765 46.0524 48.4848 46.3111C48.593 46.5699 48.6491 46.8475 48.6498 47.128Z" fill="#544F40"/>
</svg>
