<svg width="52" height="44" viewBox="0 0 52 44" fill="none" xmlns="http://www.w3.org/2000/svg">
<g clip-path="url(#clip0_1536_12802)">
<path d="M28.2087 11.6667H7.79199C5.37116 11.6667 3.41699 13.6208 3.41699 16.0417V24.7917H9.25033V30.625H26.7503V24.7917H32.5837V16.0417C32.5837 13.6208 30.6295 11.6667 28.2087 11.6667ZM23.8337 27.7083H12.167V20.4167H23.8337V27.7083ZM28.2087 17.5C27.4066 17.5 26.7503 16.8438 26.7503 16.0417C26.7503 15.2396 27.4066 14.5833 28.2087 14.5833C29.0107 14.5833 29.667 15.2396 29.667 16.0417C29.667 16.8438 29.0107 17.5 28.2087 17.5ZM26.7503 4.375H9.25033V10.2083H26.7503V4.375Z" fill="white"/>
</g>
<g clip-path="url(#clip1_1536_12802)">
<path d="M39.5 24.5C34.5 24.5 30.23 27.61 28.5 32C30.23 36.39 34.5 39.5 39.5 39.5C44.5 39.5 48.77 36.39 50.5 32C48.77 27.61 44.5 24.5 39.5 24.5ZM39.5 37C36.74 37 34.5 34.76 34.5 32C34.5 29.24 36.74 27 39.5 27C42.26 27 44.5 29.24 44.5 32C44.5 34.76 42.26 37 39.5 37ZM39.5 29C37.84 29 36.5 30.34 36.5 32C36.5 33.66 37.84 35 39.5 35C41.16 35 42.5 33.66 42.5 32C42.5 30.34 41.16 29 39.5 29Z" fill="white"/>
</g>
<defs>
<clipPath id="clip0_1536_12802">
<rect width="35" height="35" fill="white" transform="translate(0.5)"/>
</clipPath>
<clipPath id="clip1_1536_12802">
<rect width="24" height="24" fill="white" transform="translate(27.5 20)"/>
</clipPath>
</defs>
</svg>
